<svg viewBox="0 0 164 30" fill="none" xmlns="http://www.w3.org/2000/svg">
    <path d="M0.763044 4.97858C0.763044 -0.685352 12.589 -1.86125 13.3306 4.91978C13.3507 5.37054 13.1502 5.58613 12.8095 5.58613H9.86302C9.52227 5.58613 9.36192 5.42934 9.28174 5.07657C8.82073 2.41119 4.7518 3.01874 4.7518 4.97858C4.7518 8.03592 13.6313 5.78211 13.6313 11.544C13.6313 17.9331 0.682868 18.0899 0.00137234 11.2893C-0.0186717 10.8777 0.181768 10.7013 0.54256 10.7013H3.48903C3.80973 10.7013 3.99013 10.8777 4.07031 11.2501C4.5714 13.9154 9.50223 13.7978 9.50223 11.544C9.50223 8.68267 0.763044 10.7013 0.763044 4.97858ZM25.3771 1.21569C25.3771 0.84332 25.5374 0.627738 25.9784 0.627738H28.7845C29.2055 0.627738 29.4059 0.84332 29.4059 1.21569V8.87865C29.4059 12.6807 26.9806 16.1888 22.17 16.1888C17.3595 16.1888 14.9141 12.6807 14.9141 8.87865L14.8941 1.21569C14.8941 0.84332 15.1145 0.627738 15.5154 0.627738H18.3617C18.8227 0.627738 18.983 0.84332 18.983 1.21569L19.0031 8.87865C19.0031 11.7596 20.5064 12.6611 22.17 12.6611C23.8337 12.6611 25.357 11.7596 25.357 8.87865L25.3771 1.21569ZM60.3338 6.62484H52.7171C52.7171 5.07657 54.2605 3.27352 56.7259 3.27352C59.1913 3.27352 60.3338 5.07657 60.3338 6.62484ZM64.3426 8.91785V8.36909C64.3426 3.95946 61.7569 0.157377 56.6256 0.157377C52.8173 0.157377 50.0913 2.62677 49.0891 5.8605C48.6481 7.27159 48.588 8.80026 48.9087 10.2701C49.7105 13.8762 52.5768 16.62 56.6256 16.62C57.2671 16.62 62.5587 16.62 64.1822 11.5636C64.2825 11.2305 64.1422 11.1129 63.8615 11.1129H60.6545C60.4541 11.1129 60.3138 11.2109 60.2135 11.4068C59.8928 12.0732 59.051 13.3863 56.6256 13.3863C54.4809 13.3863 52.7171 11.5048 52.7171 9.545H63.7212C64.1221 9.545 64.3426 9.30982 64.3426 8.91785ZM147.505 6.66404H140.45C140.45 5.15496 141.752 3.39111 144.178 3.39111C146.603 3.39111 147.505 5.15496 147.505 6.66404ZM151.815 8.91785V8.36909C151.815 3.95946 149.209 0.157377 144.078 0.157377C140.269 0.157377 137.543 2.60717 136.541 5.8605C136.08 7.27159 136.02 8.80026 136.361 10.2701C137.142 13.8762 140.029 16.62 144.078 16.62C144.719 16.62 150.011 16.62 151.654 11.5832C151.754 11.2305 151.614 11.1129 151.313 11.1129H148.126C147.906 11.1129 147.766 11.2109 147.665 11.4068C147.345 12.0732 146.503 13.4059 144.078 13.4059C141.933 13.4059 140.369 11.5244 140.369 9.545H151.173C151.594 9.545 151.815 9.30982 151.815 8.91785ZM162.558 0.627738C163.119 0.627738 163.4 0.941312 163.4 1.50966V3.80268C163.4 4.39063 163.079 4.6454 162.478 4.6454C158.97 4.6454 157.287 6.25247 157.287 10.3877V15.5813C157.287 15.9537 157.046 16.1496 156.705 16.1496H153.719C153.378 16.1496 153.178 15.9537 153.178 15.5813V10.3877C153.178 6.82082 154.2 0.627738 162.558 0.627738ZM125.517 0.627738H122.29C122.069 0.627738 121.989 0.706132 121.909 0.941312L118.662 10.3485L116.136 0.941312C116.076 0.706132 115.976 0.627738 115.755 0.627738H111.967C111.646 0.627738 111.686 0.823722 111.747 1.0393L115.635 15.7381C115.715 16.0713 115.856 16.1496 116.236 16.1496H120.265C120.566 16.1496 120.746 16.0321 120.847 15.7185L123.913 6.54645L126.96 15.7185C127.06 16.0321 127.261 16.1496 127.541 16.1496H131.59C131.971 16.1496 132.111 16.0713 132.191 15.7381L136.08 1.0393C136.14 0.823722 136.18 0.627738 135.84 0.627738H132.071C131.831 0.627738 131.73 0.706132 131.67 0.941312L129.145 10.3485L125.918 0.941312C125.838 0.706132 125.737 0.627738 125.517 0.627738ZM99.3594 8.36909C99.3594 5.60572 100.883 3.82227 103.308 3.82227C105.733 3.82227 107.477 5.60572 107.477 8.36909C107.477 11.1325 105.673 12.9551 103.308 12.9551C100.943 12.9551 99.3594 11.1521 99.3594 8.36909ZM103.308 0.157377C98.5777 0.157377 95.1702 3.95946 95.1702 8.36909C95.1702 12.7787 98.5777 16.62 103.308 16.62C108.038 16.62 111.666 12.8963 111.666 8.36909C111.666 3.84187 107.858 0.157377 103.308 0.157377ZM75.2064 0.627738C75.7677 0.627738 76.0483 0.941312 76.0483 1.50966V3.80268C76.0483 4.39063 75.7276 4.6454 75.1263 4.6454C71.6186 4.6454 69.9349 6.25247 69.9349 10.3877V15.5813C69.9349 15.9537 69.6943 16.1496 69.3536 16.1496H66.367C66.0263 16.1496 65.8259 15.9537 65.8259 15.5813V10.3877C65.8259 6.82082 66.8481 0.627738 75.2064 0.627738ZM81.5403 8.05552C81.5403 10.7797 83.0436 12.5631 85.4289 12.5631C87.8141 12.5631 89.4978 10.7993 89.4978 8.05552C89.4978 5.31175 87.754 3.58709 85.4289 3.58709C83.1038 3.58709 81.5403 5.35095 81.5403 8.05552ZM81.7608 14.5622V20.9316C81.7608 21.304 81.5403 21.5 81.1996 21.5H78.193C77.8522 21.5 77.6518 21.304 77.6518 20.9316V1.49007C77.6518 0.921714 77.9725 0.627738 78.5538 0.627738H81.0392C81.6406 0.627738 81.7608 0.921714 81.7608 1.49007V2.90115H81.9813C85.048 -2.74318 93.7872 0.314165 93.7872 8.05552C93.7872 16.3652 84.9077 17.8547 81.7608 14.5622ZM35.0383 8.05552C35.0383 10.7797 36.5616 12.5631 38.9268 12.5631C41.292 12.5631 42.9957 10.7993 42.9957 8.05552C42.9957 5.31175 41.2719 3.58709 38.9268 3.58709C36.5817 3.58709 35.0383 5.35095 35.0383 8.05552ZM35.2187 14.5622V20.9316C35.2187 21.304 34.9781 21.5 34.6374 21.5H31.6508C31.29 21.5 31.1097 21.304 31.1097 20.9316V1.49007C31.1097 0.921714 31.4103 0.627738 31.9916 0.627738H34.4971C35.0984 0.627738 35.2187 0.921714 35.2187 1.49007V2.90115H35.4191C38.4858 -2.74318 47.225 0.314165 47.225 8.05552C47.225 16.3652 38.3455 17.8547 35.2187 14.5622Z" fill="#18181B"/>
</svg>
