<svg viewBox="0 0 1664 233" fill="white" xmlns="http://www.w3.org/2000/svg"><path d="M7.40162 49.5542C7.40162 -6.82164 122.115 -18.526 129.309 48.969C129.503 53.4556 127.559 55.6014 124.254 55.6014H95.6725C92.3672 55.6014 90.8118 54.0409 90.0341 50.5296C85.5622 23.9998 46.0931 30.047 46.0931 49.5542C46.0931 79.9855 132.225 57.5522 132.225 114.903C132.225 178.497 6.6239 180.057 0.0133118 112.367C-0.181117 108.271 1.76317 106.515 5.2629 106.515H33.844C36.9549 106.515 38.7047 108.271 39.4825 111.977C44.3432 138.507 92.1728 137.337 92.1728 114.903C92.1728 86.4228 7.40162 106.515 7.40162 49.5542ZM246.161 12.1004C246.161 8.39398 247.716 6.24819 251.994 6.24819H279.214C283.297 6.24819 285.241 8.39398 285.241 12.1004V88.3736C285.241 126.218 261.715 161.135 215.052 161.135C168.389 161.135 144.669 126.218 144.669 88.3736L144.474 12.1004C144.474 8.39398 146.613 6.24819 150.502 6.24819H178.11C182.582 6.24819 184.138 8.39398 184.138 12.1004L184.332 88.3736C184.332 117.049 198.914 126.022 215.052 126.022C231.19 126.022 245.966 117.049 245.966 88.3736L246.161 12.1004ZM585.245 65.9403H511.362C511.362 50.5296 526.333 32.5829 550.248 32.5829C574.163 32.5829 585.245 50.5296 585.245 65.9403ZM624.131 88.7637V83.3017C624.131 39.4105 599.05 1.56646 549.276 1.56646C512.334 1.56646 485.892 26.1455 476.17 58.3325C471.893 72.3776 471.31 87.5933 474.421 102.224C482.198 138.117 510.001 165.427 549.276 165.427C555.498 165.427 606.827 165.427 622.576 115.098C623.548 111.782 622.187 110.612 619.465 110.612H588.356C586.412 110.612 585.051 111.587 584.079 113.538C580.968 120.17 572.802 133.24 549.276 133.24C528.472 133.24 511.362 114.513 511.362 95.006H618.104C621.992 95.006 624.131 92.6652 624.131 88.7637ZM1430.82 66.3304H1362.38C1362.38 51.3099 1375.02 33.7534 1398.54 33.7534C1422.07 33.7534 1430.82 51.3099 1430.82 66.3304ZM1472.62 88.7637V83.3017C1472.62 39.4105 1447.34 1.56646 1397.57 1.56646C1360.63 1.56646 1334.19 25.9505 1324.46 58.3325C1319.99 72.3776 1319.41 87.5933 1322.71 102.224C1330.3 138.117 1358.3 165.427 1397.57 165.427C1403.79 165.427 1455.12 165.427 1471.06 115.294C1472.04 111.782 1470.68 110.612 1467.76 110.612H1436.84C1434.71 110.612 1433.35 111.587 1432.37 113.538C1429.26 120.17 1421.1 133.435 1397.57 133.435C1376.77 133.435 1361.6 114.708 1361.6 95.006H1466.4C1470.48 95.006 1472.62 92.6652 1472.62 88.7637ZM1576.83 6.24819C1582.28 6.24819 1585 9.36934 1585 15.0264V37.8499C1585 43.702 1581.89 46.238 1576.06 46.238C1542.03 46.238 1525.7 62.2339 1525.7 103.394V155.088C1525.7 158.795 1523.37 160.745 1520.06 160.745H1491.09C1487.79 160.745 1485.84 158.795 1485.84 155.088V103.394C1485.84 67.891 1495.76 6.24819 1576.83 6.24819ZM1217.53 6.24819H1186.23C1184.09 6.24819 1183.31 7.02848 1182.53 9.36934L1151.03 103.004L1126.54 9.36934C1125.95 7.02848 1124.98 6.24819 1122.84 6.24819H1086.09C1082.98 6.24819 1083.37 8.19891 1083.96 10.3447L1121.68 156.649C1122.45 159.965 1123.81 160.745 1127.51 160.745H1166.59C1169.5 160.745 1171.25 159.575 1172.23 156.454L1201.97 65.16L1231.53 156.454C1232.5 159.575 1234.44 160.745 1237.17 160.745H1276.44C1280.13 160.745 1281.5 159.965 1282.27 156.649L1319.99 10.3447C1320.58 8.19891 1320.97 6.24819 1317.66 6.24819H1281.11C1278.77 6.24819 1277.8 7.02848 1277.22 9.36934L1252.72 103.004L1221.42 9.36934C1220.64 7.02848 1219.67 6.24819 1217.53 6.24819ZM963.799 83.3017C963.799 55.7965 978.575 38.045 1002.1 38.045C1025.63 38.045 1042.54 55.7965 1042.54 83.3017C1042.54 110.807 1025.04 128.949 1002.1 128.949C979.159 128.949 963.799 111.002 963.799 83.3017ZM1002.1 1.56646C956.216 1.56646 923.163 39.4105 923.163 83.3017C923.163 127.193 956.216 165.427 1002.1 165.427C1047.99 165.427 1083.18 128.363 1083.18 83.3017C1083.18 38.24 1046.24 1.56646 1002.1 1.56646ZM729.512 6.24819C734.956 6.24819 737.678 9.36934 737.678 15.0264V37.8499C737.678 43.702 734.567 46.238 728.734 46.238C694.709 46.238 678.377 62.2339 678.377 103.394V155.088C678.377 158.795 676.044 160.745 672.738 160.745H643.768C640.463 160.745 638.519 158.795 638.519 155.088V103.394C638.519 67.891 648.435 6.24819 729.512 6.24819ZM790.951 80.1805C790.951 107.296 805.533 125.047 828.67 125.047C851.808 125.047 868.14 107.491 868.14 80.1805C868.14 52.8704 851.224 35.7041 828.67 35.7041C806.117 35.7041 790.951 53.2606 790.951 80.1805ZM793.09 144.944V208.343C793.09 212.049 790.951 214 787.646 214H758.482C755.176 214 753.232 212.049 753.232 208.343V14.8314C753.232 9.17427 756.343 6.24819 761.981 6.24819H786.091C791.923 6.24819 793.09 9.17427 793.09 14.8314V28.8766H795.229C824.976 -27.3042 909.747 3.12704 909.747 80.1805C909.747 162.891 823.615 177.717 793.09 144.944ZM339.876 80.1805C339.876 107.296 354.652 125.047 377.595 125.047C400.537 125.047 417.064 107.491 417.064 80.1805C417.064 52.8704 400.343 35.7041 377.595 35.7041C354.847 35.7041 339.876 53.2606 339.876 80.1805ZM341.625 144.944V208.343C341.625 212.049 339.292 214 335.987 214H307.017C303.517 214 301.767 212.049 301.767 208.343V14.8314C301.767 9.17427 304.684 6.24819 310.322 6.24819H334.626C340.459 6.24819 341.625 9.17427 341.625 14.8314V28.8766H343.57C373.317 -27.3042 458.089 3.12704 458.089 80.1805C458.089 162.891 371.956 177.717 341.625 144.944Z"></path></svg>
