<svg width="25" height="24" viewBox="0 0 25 24" fill="none" xmlns="http://www.w3.org/2000/svg">
<path d="M0.855469 6C0.855469 2.68629 3.54176 0 6.85547 0H18.8555C22.1692 0 24.8555 2.68629 24.8555 6V18C24.8555 21.3137 22.1692 24 18.8555 24H6.85547C3.54176 24 0.855469 21.3137 0.855469 18V6Z" fill="white"/>
<path d="M13.1514 19.769C12.6387 19.769 12.1455 19.6714 11.6719 19.4761C11.2031 19.2808 10.7832 18.978 10.4121 18.5679C10.041 18.1528 9.74805 17.6206 9.5332 16.9712C9.31836 16.3218 9.21094 15.5356 9.21094 14.6128V14.5981C9.21094 13.397 9.36963 12.3691 9.68701 11.5146C10.0093 10.6553 10.4707 9.99854 11.0713 9.54443C11.6719 9.09033 12.3896 8.86328 13.2246 8.86328C13.8154 8.86328 14.3452 8.9707 14.814 9.18555C15.2876 9.40039 15.6782 9.70068 15.9858 10.0864C16.2983 10.4673 16.5059 10.9043 16.6084 11.3975L16.6304 11.4927H15.6196L15.5977 11.4121C15.5 11.0801 15.3413 10.7896 15.1216 10.5405C14.9019 10.2915 14.6284 10.0986 14.3013 9.96191C13.979 9.82031 13.6152 9.74951 13.21 9.74951C12.5166 9.74951 11.9478 9.95947 11.5034 10.3794C11.0591 10.7993 10.7295 11.3584 10.5146 12.0566C10.3047 12.7549 10.1924 13.5239 10.1777 14.3638C10.1729 14.4224 10.1704 14.481 10.1704 14.5396C10.1704 14.5981 10.1704 14.6567 10.1704 14.7153L10.4561 16.1216C10.4561 16.6294 10.5732 17.0933 10.8076 17.5132C11.042 17.9282 11.3618 18.2603 11.7671 18.5093C12.1724 18.7534 12.6313 18.8755 13.144 18.8755C13.6372 18.8755 14.084 18.7583 14.4844 18.5239C14.8896 18.2847 15.2095 17.9648 15.4438 17.5645C15.6831 17.1592 15.8027 16.7051 15.8027 16.2021V16.1875C15.8027 15.6846 15.688 15.2354 15.4585 14.8398C15.229 14.4443 14.9141 14.1343 14.5137 13.9097C14.1133 13.6802 13.6592 13.5654 13.1514 13.5654C12.6533 13.5654 12.1992 13.6777 11.7891 13.9023C11.3789 14.127 11.0542 14.4321 10.8149 14.8179C10.5757 15.2036 10.4561 15.6357 10.4561 16.1143V16.1216H10.0605V14.6714H10.1997C10.3364 14.3003 10.5513 13.9658 10.8442 13.668C11.1421 13.3652 11.501 13.126 11.9209 12.9502C12.3408 12.7695 12.8022 12.6792 13.3052 12.6792C13.979 12.6792 14.5796 12.833 15.1069 13.1406C15.6343 13.4434 16.0493 13.8584 16.3521 14.3857C16.6597 14.9082 16.8135 15.5039 16.8135 16.1729V16.1875C16.8135 16.8711 16.6523 17.4839 16.3301 18.0259C16.0127 18.563 15.5781 18.9878 15.0264 19.3003C14.4795 19.6128 13.8545 19.769 13.1514 19.769Z" fill="#262626"/>
<path d="M15.5781 6.13174V2.89062H16.1441L17.813 5.19512L17.3391 4.95479H17.676V2.89062H18.3251V6.13174H17.7636L16.0902 3.81826L16.5664 4.05859H16.2272V6.13174H15.5781Z" fill="#FF3A2F"/>
<path d="M13.3735 6.21592C13.0531 6.21592 12.7761 6.14704 12.5425 6.00928C12.3089 5.87002 12.1285 5.67311 12.0012 5.41855C11.8754 5.164 11.8125 4.86227 11.8125 4.51338V4.50889C11.8125 4.1585 11.8761 3.85677 12.0034 3.60371C12.1322 3.34915 12.3134 3.15299 12.547 3.01523C12.7806 2.87747 13.0561 2.80859 13.3735 2.80859C13.6925 2.80859 13.968 2.87747 14.2001 3.01523C14.4337 3.15299 14.6141 3.34915 14.7414 3.60371C14.8687 3.85827 14.9323 4.15999 14.9323 4.50889V4.51338C14.9323 4.86227 14.8687 5.164 14.7414 5.41855C14.6156 5.67311 14.4359 5.87002 14.2023 6.00928C13.9688 6.14704 13.6925 6.21592 13.3735 6.21592ZM13.3735 5.64092C13.5487 5.64092 13.7015 5.5945 13.8317 5.50166C13.962 5.40882 14.0623 5.2778 14.1327 5.10859C14.2046 4.93939 14.2405 4.74098 14.2405 4.51338V4.50889C14.2405 4.27979 14.2046 4.08138 14.1327 3.91367C14.0623 3.74447 13.962 3.61419 13.8317 3.52285C13.7015 3.43001 13.5487 3.38359 13.3735 3.38359C13.1983 3.38359 13.0456 3.43001 12.9153 3.52285C12.7851 3.61419 12.684 3.74447 12.6121 3.91367C12.5402 4.08138 12.5043 4.27979 12.5043 4.50889V4.51338C12.5043 4.74098 12.5395 4.93939 12.6099 5.10859C12.6817 5.2778 12.7821 5.40882 12.9108 5.50166C13.0411 5.5945 13.1953 5.64092 13.3735 5.64092Z" fill="#FF3A2F"/>
<path d="M7.7832 6.13174V2.89062H8.56035L9.45654 5.2625H9.49697L10.3909 2.89062H11.1681V6.13174H10.5639V3.92607H10.2292L10.8761 2.98047L9.68789 6.13174H9.26338L8.07744 2.98047L8.72207 3.92607H8.3874V6.13174H7.7832Z" fill="#FF3A2F"/>
</svg>
