<svg width="25" height="24" viewBox="0 0 25 24" fill="none" xmlns="http://www.w3.org/2000/svg">
<g clip-path="url(#clip0_2877_6097)">
<path d="M19.1706 5.68359H6.53906V18.3152H19.1706V5.68359Z" fill="white"/>
<path d="M19.1711 23.9973L24.8553 18.313L22.0132 17.8281L19.1711 18.313L18.6523 20.9127L19.1711 23.9973Z" fill="#EA4335"/>
<path d="M0.855469 18.313V22.1025C0.855469 23.1494 1.70336 23.9973 2.75021 23.9973H6.53968L7.1233 21.1551L6.53968 18.313L3.44289 17.8281L0.855469 18.313Z" fill="#188038"/>
<path d="M24.8553 5.68421V1.89474C24.8553 0.847895 24.0074 0 22.9606 0H19.1711C18.8253 1.40961 18.6523 2.44698 18.6523 3.1121C18.6523 3.77722 18.8253 4.63459 19.1711 5.68421C20.4282 6.0442 21.3756 6.2242 22.0132 6.2242C22.6508 6.2242 23.5982 6.0442 24.8553 5.68421Z" fill="#1967D2"/>
<path d="M24.8561 5.68359H19.1719V18.3152H24.8561V5.68359Z" fill="#FBBC04"/>
<path d="M19.1706 18.3164H6.53906V24.0006H19.1706V18.3164Z" fill="#34A853"/>
<path d="M19.1713 0H2.75021C1.70336 0 0.855469 0.847895 0.855469 1.89474V18.3158H6.53968V5.68421H19.1713V0Z" fill="#4285F4"/>
<path d="M9.12971 15.4829C8.65761 15.164 8.33076 14.6982 8.15234 14.0824L9.24813 13.6308C9.34761 14.0098 9.52129 14.3034 9.76919 14.5119C10.0155 14.7203 10.3155 14.8229 10.666 14.8229C11.0244 14.8229 11.3323 14.714 11.5897 14.4961C11.8471 14.2782 11.9766 14.0003 11.9766 13.664C11.9766 13.3198 11.8408 13.0387 11.5692 12.8208C11.2976 12.6029 10.9566 12.494 10.5492 12.494H9.91603V11.4092H10.4844C10.835 11.4092 11.1302 11.3145 11.3702 11.125C11.6102 10.9355 11.7302 10.6766 11.7302 10.3466C11.7302 10.0529 11.6229 9.81923 11.4081 9.64396C11.1934 9.4687 10.9218 9.38028 10.5918 9.38028C10.2697 9.38028 10.0139 9.46554 9.82445 9.63765C9.6351 9.81021 9.49275 10.0281 9.41077 10.2708L8.32603 9.81923C8.46971 9.41186 8.7334 9.05186 9.12024 8.74081C9.50708 8.42975 10.0013 8.27344 10.6013 8.27344C11.045 8.27344 11.4444 8.3587 11.7981 8.53081C12.1518 8.70291 12.4297 8.94133 12.6302 9.24449C12.8308 9.54923 12.9302 9.89028 12.9302 10.2692C12.9302 10.6561 12.8371 10.9829 12.6508 11.2513C12.4644 11.5198 12.2355 11.725 11.9639 11.8687V11.9334C12.3146 12.078 12.6192 12.3155 12.845 12.6203C13.0739 12.9282 13.1892 13.2961 13.1892 13.7255C13.1892 14.155 13.0802 14.5387 12.8623 14.875C12.6444 15.2113 12.3429 15.4766 11.9608 15.6692C11.5771 15.8619 11.146 15.9598 10.6676 15.9598C10.1134 15.9613 9.60182 15.8019 9.12971 15.4829ZM15.8608 10.045L14.6576 10.915L14.056 10.0024L16.2144 8.44554H17.0418V15.7892H15.8608V10.045Z" fill="#4285F4"/>
</g>
<defs>
<clipPath id="clip0_2877_6097">
<rect width="24" height="24" fill="white" transform="translate(0.855469)"/>
</clipPath>
</defs>
</svg>
